<?xml version="1.0" standalone="no"?>
<!DOCTYPE svg PUBLIC "-//W3C//DTD SVG 20010904//EN"
 "http://www.w3.org/TR/2001/REC-SVG-20010904/DTD/svg10.dtd">
<svg version="1.0" xmlns="http://www.w3.org/2000/svg"
 width="512.000000pt" height="512.000000pt" viewBox="0 0 512.000000 512.000000"
 preserveAspectRatio="xMidYMid meet">
<metadata>
Created by potrace 1.11, written by Peter Selinger 2001-2013
</metadata>
<g transform="translate(0.000000,512.000000) scale(0.100000,-0.100000)"
fill="#000000" stroke="none">
<path d="M1137 3914 c-1 -1 -20 -4 -42 -8 -68 -9 -84 -14 -139 -39 -71 -33
-120 -79 -151 -141 -49 -101 -54 -149 -58 -546 -2 -312 -5 -360 -20 -395 -43
-97 -93 -115 -318 -115 -198 0 -200 -1 -202 -112 -1 -111 -5 -109 211 -112
166 -2 180 -3 227 -26 40 -20 55 -35 75 -75 25 -50 25 -51 27 -365 3 -388 4
-411 20 -484 29 -124 87 -200 188 -246 95 -44 147 -51 373 -51 211 0 212 0
212 111 0 109 0 109 -204 111 -178 1 -237 13 -278 56 -57 62 -60 82 -63 501
-2 286 -5 345 -19 391 -25 76 -53 115 -114 155 l-52 34 33 21 c72 45 110 92
133 169 15 49 18 109 20 407 2 372 6 413 50 471 43 55 86 66 287 69 211 3 206
0 207 111 0 112 6 109 -214 110 -103 0 -187 -1 -189 -2z"/>
<path d="M3585 3896 c-20 -20 -22 -32 -21 -95 3 -105 0 -104 210 -107 162 -2
180 -4 223 -25 55 -27 87 -71 101 -133 5 -24 10 -193 10 -377 2 -362 8 -416
58 -492 22 -33 84 -87 117 -101 8 -3 7 -8 -5 -16 -96 -61 -140 -122 -159 -223
-5 -30 -11 -207 -13 -393 -2 -186 -6 -350 -9 -364 -13 -52 -30 -80 -61 -103
-54 -42 -78 -45 -297 -46 -165 -1 -171 -4 -175 -87 -3 -78 4 -112 29 -126 13
-6 90 -10 207 -9 151 1 201 5 266 21 164 42 241 126 280 305 3 17 7 186 9 377
3 359 6 401 32 453 39 75 82 88 298 91 174 2 180 3 198 25 16 20 18 36 15 96
-5 102 -5 102 -203 103 -88 1 -171 3 -184 6 -77 14 -134 75 -146 157 -4 26 -9
201 -10 389 -2 189 -5 350 -7 358 -3 8 -8 31 -12 50 -25 106 -92 193 -180 234
-89 41 -142 48 -350 51 -194 3 -199 3 -221 -19z"/>
<path d="M2580 3209 c-149 -18 -229 -47 -339 -120 -135 -90 -231 -237 -258
-394 -2 -16 -9 -50 -13 -75 -5 -25 -8 -108 -8 -185 3 -390 165 -626 493 -717
142 -40 379 -30 550 23 159 49 175 71 123 177 -40 81 -48 84 -174 47 -117 -34
-130 -36 -262 -40 -162 -5 -266 30 -353 119 -93 97 -124 205 -123 426 1 110 5
149 23 210 88 288 351 375 757 248 85 -26 104 -17 137 64 34 86 28 111 -32
136 -157 68 -365 100 -521 81z"/>
</g>
</svg>
